<svg width="10" height="10" viewBox="0 0 10 10" fill="none" xmlns="http://www.w3.org/2000/svg">
<path d="M5 0.9375C2.75996 0.9375 0.9375 2.75996 0.9375 5C0.9375 7.24004 2.75996 9.0625 5 9.0625C7.24004 9.0625 9.0625 7.24004 9.0625 5C9.0625 2.75996 7.24004 0.9375 5 0.9375ZM6.4709 6.0291C6.50114 6.05783 6.52532 6.09232 6.54202 6.13055C6.55872 6.16877 6.5676 6.20995 6.56813 6.25166C6.56867 6.29336 6.56084 6.33476 6.54513 6.3734C6.52941 6.41203 6.50612 6.44713 6.47663 6.47663C6.44713 6.50612 6.41203 6.52941 6.3734 6.54513C6.33476 6.56084 6.29336 6.56867 6.25166 6.56813C6.20995 6.5676 6.16877 6.55872 6.13055 6.54202C6.09232 6.52532 6.05783 6.50114 6.0291 6.4709L5 5.44199L3.9709 6.4709C3.91182 6.52703 3.83314 6.55786 3.75166 6.55682C3.67017 6.55577 3.59231 6.52294 3.53469 6.46531C3.47706 6.40769 3.44423 6.32983 3.44318 6.24834C3.44214 6.16686 3.47297 6.08818 3.5291 6.0291L4.55801 5L3.5291 3.9709C3.47297 3.91182 3.44214 3.83314 3.44318 3.75166C3.44423 3.67017 3.47706 3.59231 3.53469 3.53469C3.59231 3.47706 3.67017 3.44423 3.75166 3.44318C3.83314 3.44214 3.91182 3.47297 3.9709 3.5291L5 4.55801L6.0291 3.5291C6.08818 3.47297 6.16686 3.44214 6.24834 3.44318C6.32983 3.44423 6.40769 3.47706 6.46531 3.53469C6.52294 3.59231 6.55577 3.67017 6.55682 3.75166C6.55786 3.83314 6.52703 3.91182 6.4709 3.9709L5.44199 5L6.4709 6.0291Z" fill="#8C8C8C"/>
</svg>
